<svg id="Group_16" data-name="Group 16" xmlns="http://www.w3.org/2000/svg" width="21.319" height="20.779" viewBox="0 0 21.319 20.779">
  <path fill="#FFFFFF" d="M114.26,436.584L99.023,483h301.953l-15.237-46.416H114.26z M161.629,474.404h-49.592l9.594-29.225h69.223
                        C181.113,454.921,171.371,464.663,161.629,474.404z"/>
  <path id="Path_37" data-name="Path 37" d="M883.736,630.867a.666.666,0,0,0-.941,0l-2.6,2.6-2.6-2.6a.665.665,0,0,0-.941.941l2.6,2.6-2.6,2.6a.666.666,0,0,0,.941.941l2.6-2.6,2.6,2.6a.666.666,0,0,0,.941-.941l-2.6-2.6,2.6-2.6A.666.666,0,0,0,883.736,630.867Z" transform="translate(-869.539 -624.014)"/>
  <path id="Path_38" data-name="Path 38" d="M881.947,621.516a5.782,5.782,0,0,0-2.121-4.233,9.58,9.58,0,0,0-4.494-1.349l-.291-.035a28.118,28.118,0,0,0-9,.291,9.337,9.337,0,0,0-2.059.6A4.546,4.546,0,0,0,862,618.4a7.9,7.9,0,0,0-.993,3.823c-.095,1.326-.187,2.9-.15,4.526.014.608.033,1.315.081,2.019a11.6,11.6,0,0,0,1.053,4.538,5.013,5.013,0,0,0,4.018,2.628,37.839,37.839,0,0,0,5.311.508h.116a29.526,29.526,0,0,0,5.322-.544,6.468,6.468,0,0,0,3.833-1.749c1.085-1.195,1.288-2.949,1.4-4.645A40.759,40.759,0,0,0,881.947,621.516Zm-1.276,7.9c-.1,1.461-.263,2.961-1.061,3.84a5.31,5.31,0,0,1-3.086,1.334,28.646,28.646,0,0,1-5.194.522,36.663,36.663,0,0,1-5.124-.493,3.629,3.629,0,0,1-3.034-1.931,10.4,10.4,0,0,1-.9-4.008c-.046-.676-.064-1.366-.078-1.959-.036-1.57.054-3.105.147-4.4a6.833,6.833,0,0,1,.774-3.181,3.2,3.2,0,0,1,1.415-1.134,8.111,8.111,0,0,1,1.764-.51,27.4,27.4,0,0,1,5.16-.5,26.821,26.821,0,0,1,3.423.221l.3.036a8.439,8.439,0,0,1,3.9,1.122,4.564,4.564,0,0,1,1.557,3.311A39.56,39.56,0,0,1,880.671,629.417Z" transform="translate(-860.852 -615.666)"/>
</svg>
