<?xml version="1.0" standalone="no"?>
<!DOCTYPE svg PUBLIC "-//W3C//DTD SVG 20010904//EN"
 "http://www.w3.org/TR/2001/REC-SVG-20010904/DTD/svg10.dtd">
<svg version="1.0" xmlns="http://www.w3.org/2000/svg"
 width="503.000000pt" height="503.000000pt" viewBox="0 0 503.000000 503.000000"
 preserveAspectRatio="xMidYMid meet">

<g transform="translate(0.000000,503.000000) scale(0.100000,-0.100000)"
fill="#000000" stroke="none">
<path d="M2325 5009 c-229 -18 -467 -71 -692 -155 -510 -190 -969 -572 -1257
-1047 -447 -738 -483 -1649 -95 -2420 299 -593 818 -1044 1444 -1253 269 -90
499 -127 790 -127 290 -1 521 36 785 122 538 178 991 522 1308 996 153 229
295 560 357 831 79 351 79 756 0 1104 -149 663 -566 1240 -1151 1595 -339 206
-712 324 -1124 355 -151 11 -206 11 -365 -1z m415 -110 c620 -56 1210 -362
1607 -833 418 -497 621 -1139 562 -1776 -87 -945 -728 -1754 -1629 -2054 -506
-168 -1014 -168 -1520 0 -643 214 -1175 701 -1439 1316 -367 855 -221 1821
381 2523 504 587 1264 895 2038 824z"/>
<path d="M2400 4320 c-206 -52 -361 -236 -377 -447 -20 -263 160 -490 425
-535 248 -42 509 139 561 390 50 240 -80 480 -310 573 -60 24 -235 36 -299 19z"/>
<path d="M1820 2952 l0 -109 98 -6 c53 -4 114 -12 135 -18 45 -12 100 -58 116
-96 8 -21 11 -253 9 -855 -3 -816 -3 -827 -24 -855 -11 -15 -42 -39 -70 -53
-41 -21 -67 -25 -156 -28 l-108 -4 0 -109 0 -109 755 0 755 0 0 109 0 108
-113 5 c-129 5 -183 26 -224 87 l-23 34 0 1003 0 1004 -575 0 -575 0 0 -108z"/>
</g>
</svg>
