<?xml version="1.0" encoding="utf-8"?>
<!-- Generator: Adobe Illustrator 25.2.3, SVG Export Plug-In . SVG Version: 6.00 Build 0)  -->
<svg version="1.1" xmlns="http://www.w3.org/2000/svg" xmlns:xlink="http://www.w3.org/1999/xlink" x="0px" y="0px"
	 viewBox="0 0 496 177.07" style="enable-background:new 0 0 496 177.07;" xml:space="preserve">
<style type="text/css">
	.st0{fill:#00802F;}
</style>
<g id="Text_Submarke">
	<g>
		<path d="M126.05,127.01c-1.9-1.08-4.04-1.79-6.23-1.79c-4.36,0-7.13,3.22-7.13,6.84c0,3.35,2.38,6.78,7.15,6.78
			c2.27,0,4.49-0.76,6.39-2.01v2.82c-2.08,1.14-4.25,1.58-6.55,1.58c-6.68,0-9.69-5.02-9.69-9.21c0-4.96,4.04-9.27,9.74-9.27
			c2.77,0,5.15,0.98,6.31,1.48V127.01z"/>
		<path d="M138.99,139.84c-0.82,0.53-2.16,1.4-4.65,1.4c-1.24,0-2.67-0.18-4.09-1.66c-1.56-1.61-1.77-3.43-1.77-4.57
			c0-3.7,2.32-6.1,5.54-6.1c2.77,0,4.65,1.98,5.04,4.59c0.13,0.79,0.13,1.32,0.13,1.77h-8.34c0.08,1.77,1.24,3.72,3.83,3.72
			c1.53,0,3.04-0.53,4.3-1.45V139.84z M136.88,133.87c-0.03-0.48-0.21-2.93-2.88-2.93c-0.74,0-1.64,0.29-2.27,1
			c-0.63,0.69-0.74,1.4-0.82,1.93H136.88z"/>
		<path d="M144.08,129.15v1.5c1.06-1.19,2.45-1.74,3.56-1.74c0.74,0,2.38,0.26,3.35,1.9c0.37,0.58,0.66,1.27,0.66,3.43V141h-2.38
			v-6.76c0-1.27,0-1.93-0.63-2.64c-0.45-0.5-0.98-0.74-1.77-0.74c-1.08,0-2.09,0.63-2.8,1.66V141h-2.4v-11.85H144.08z"/>
		<path d="M157.68,129.15h3.75v2.11h-3.75v5.17c0.03,1.48,0.05,1.74,0.42,2.16c0.45,0.48,1.03,0.5,1.27,0.5
			c0.48,0,1.37-0.05,2.67-0.84v2.19c-1.11,0.61-2.35,0.79-3.04,0.79c-0.82,0-2.27-0.34-3.09-1.5c-0.58-0.87-0.58-2.14-0.58-3.22
			v-5.25h-2.06v-0.24l4.41-4.33V129.15z"/>
		<path d="M173.73,139.84c-0.82,0.53-2.16,1.4-4.65,1.4c-1.24,0-2.67-0.18-4.09-1.66c-1.56-1.61-1.77-3.43-1.77-4.57
			c0-3.7,2.32-6.1,5.54-6.1c2.77,0,4.65,1.98,5.04,4.59c0.13,0.79,0.13,1.32,0.13,1.77h-8.34c0.08,1.77,1.24,3.72,3.83,3.72
			c1.53,0,3.04-0.53,4.3-1.45V139.84z M171.62,133.87c-0.03-0.48-0.21-2.93-2.88-2.93c-0.74,0-1.64,0.29-2.27,1
			c-0.63,0.69-0.74,1.4-0.82,1.93H171.62z"/>
		<path d="M178.72,129.15v2.72c0.77-1.19,1.87-2.96,3.54-2.96c0.34,0,1.4,0.03,2.77,1.35l-1.24,2.06c-0.29-0.29-1.35-1.16-2.27-1.16
			c-0.87,0-2.8,0.95-2.8,3.64v6.2h-2.35v-11.85H178.72z"/>
		<path d="M200.16,125.29c-0.26-0.11-0.53-0.21-1.08-0.21c-2.46,0-2.46,2.01-2.46,3.35v0.71h2.11v2.11h-2.11V141h-2.38v-9.74h-1.66
			v-2.11h1.66v-0.71c0-1.93,0.37-2.8,0.61-3.33c0.71-1.4,2.06-2.35,3.56-2.35c0.69,0,1.24,0.11,1.74,0.24V125.29z"/>
		<path d="M212.17,135.11c0,4.22-3.43,6.12-6.36,6.12c-3.8,0-6.31-2.8-6.31-6.18c0-3.33,2.43-6.15,6.39-6.15
			C209.42,128.91,212.17,131.37,212.17,135.11z M201.9,135.09c0,2.98,2.22,4.04,3.96,4.04c2.32,0,3.91-1.66,3.91-4.07
			c0-2.98-2.32-4.04-4.01-4.04C203.64,131.02,201.9,132.47,201.9,135.09z"/>
		<path d="M217.03,129.15v2.72c0.77-1.19,1.87-2.96,3.54-2.96c0.34,0,1.4,0.03,2.77,1.35l-1.24,2.06c-0.29-0.29-1.35-1.16-2.27-1.16
			c-0.87,0-2.8,0.95-2.8,3.64v6.2h-2.35v-11.85H217.03z"/>
		<path d="M248.41,139.76c-1.37,0.61-3.59,1.48-6.6,1.48c-6.97,0-9.85-4.99-9.85-9.08c0-4.75,3.56-9.4,9.74-9.4
			c2.53,0,4.41,0.71,6.34,1.53v2.64c-2.96-1.72-5.39-1.87-6.39-1.87c-3.59,0-7,2.69-7,6.94c0,3.99,2.88,6.97,7.23,6.97
			c1.32,0,2.22-0.24,3.93-0.79v-3.75h-3.46v-2.27h6.04V139.76z"/>
		<path d="M263.81,135.11c0,4.22-3.43,6.12-6.36,6.12c-3.8,0-6.31-2.8-6.31-6.18c0-3.33,2.43-6.15,6.39-6.15
			C261.06,128.91,263.81,131.37,263.81,135.11z M253.54,135.09c0,2.98,2.22,4.04,3.96,4.04c2.32,0,3.91-1.66,3.91-4.07
			c0-2.98-2.32-4.04-4.01-4.04C255.28,131.02,253.54,132.47,253.54,135.09z"/>
		<path d="M270.46,141.24h-0.79l-5.36-12.09h2.56l3.19,7.29l3.09-7.29h2.53L270.46,141.24z"/>
		<path d="M286.93,139.84c-0.82,0.53-2.16,1.4-4.65,1.4c-1.24,0-2.67-0.18-4.09-1.66c-1.56-1.61-1.77-3.43-1.77-4.57
			c0-3.7,2.32-6.1,5.54-6.1c2.77,0,4.65,1.98,5.04,4.59c0.13,0.79,0.13,1.32,0.13,1.77h-8.34c0.08,1.77,1.24,3.72,3.83,3.72
			c1.53,0,3.04-0.53,4.3-1.45V139.84z M284.82,133.87c-0.03-0.48-0.21-2.93-2.88-2.93c-0.74,0-1.64,0.29-2.27,1
			c-0.63,0.69-0.74,1.4-0.82,1.93H284.82z"/>
		<path d="M291.92,129.15v2.72c0.77-1.19,1.87-2.96,3.54-2.96c0.34,0,1.4,0.03,2.77,1.35l-1.24,2.06c-0.29-0.29-1.35-1.16-2.27-1.16
			c-0.87,0-2.8,0.95-2.8,3.64v6.2h-2.35v-11.85H291.92z"/>
		<path d="M302.01,129.15v1.5c1.06-1.19,2.45-1.74,3.56-1.74c0.74,0,2.38,0.26,3.35,1.9c0.37,0.58,0.66,1.27,0.66,3.43V141h-2.38
			v-6.76c0-1.27,0-1.93-0.63-2.64c-0.45-0.5-0.98-0.74-1.77-0.74c-1.08,0-2.09,0.63-2.8,1.66V141h-2.4v-11.85H302.01z"/>
		<path d="M322.15,140.31c-1.08,0.71-1.53,0.92-2.27,0.92c-1.03,0-1.58-0.37-1.8-1.21c-1.03,0.82-2.11,1.21-3.19,1.21
			c-1.74,0-2.9-1.37-2.9-2.9c0-2.35,2.14-3.06,4.04-3.75l2.09-0.74v-0.63c0-1.48-0.71-2.09-2.14-2.09c-1.29,0-2.61,0.61-3.75,1.95
			v-2.56c0.92-1.08,2.22-1.61,3.93-1.61c2.4,0,4.3,1.21,4.3,3.91v6.1c0,0.45,0.16,0.61,0.45,0.61c0.24,0,0.71-0.24,1.24-0.63V140.31
			z M318.11,135.14c-2.01,0.69-3.75,1.37-3.75,2.77c0,0.98,0.71,1.66,1.69,1.66c0.74,0,1.43-0.37,2.06-0.98V135.14z"/>
		<path d="M326.48,129.15v1.5c1.06-1.19,2.45-1.74,3.56-1.74c0.74,0,2.38,0.26,3.35,1.9c0.37,0.58,0.66,1.27,0.66,3.43V141h-2.38
			v-6.76c0-1.27,0-1.93-0.63-2.64c-0.45-0.5-0.98-0.74-1.77-0.74c-1.08,0-2.09,0.63-2.8,1.66V141h-2.4v-11.85H326.48z"/>
		<path d="M345.96,132.24c-0.66-0.42-1.77-1.14-3.3-1.14c-2.46,0-3.62,2.09-3.62,3.96c0,1.98,1.16,3.96,4.07,3.96
			c1.24,0,2.24-0.4,3.11-0.79v2.32c-0.53,0.19-1.77,0.69-3.46,0.69c-4.09,0-6.1-2.85-6.1-6.1c0-2.88,1.64-6.23,5.86-6.23
			c1.53,0,2.51,0.42,3.43,0.82V132.24z"/>
		<path d="M358.77,139.84c-0.82,0.53-2.16,1.4-4.65,1.4c-1.24,0-2.67-0.18-4.09-1.66c-1.56-1.61-1.77-3.43-1.77-4.57
			c0-3.7,2.32-6.1,5.54-6.1c2.77,0,4.65,1.98,5.04,4.59c0.13,0.79,0.13,1.32,0.13,1.77h-8.34c0.08,1.77,1.24,3.72,3.83,3.72
			c1.53,0,3.04-0.53,4.3-1.45V139.84z M356.65,133.87c-0.03-0.48-0.21-2.93-2.88-2.93c-0.74,0-1.64,0.29-2.27,1
			c-0.63,0.69-0.74,1.4-0.82,1.93H356.65z"/>
		<path d="M119.96,170.31c-1.08,0.71-1.53,0.92-2.27,0.92c-1.03,0-1.58-0.37-1.8-1.21c-1.03,0.82-2.11,1.21-3.19,1.21
			c-1.74,0-2.9-1.37-2.9-2.9c0-2.35,2.14-3.06,4.04-3.75l2.09-0.74v-0.63c0-1.48-0.71-2.09-2.14-2.09c-1.29,0-2.61,0.61-3.75,1.95
			v-2.56c0.92-1.08,2.22-1.61,3.93-1.61c2.4,0,4.3,1.21,4.3,3.91v6.1c0,0.45,0.16,0.61,0.45,0.61c0.24,0,0.71-0.24,1.24-0.63V170.31
			z M115.92,165.14c-2.01,0.69-3.75,1.37-3.75,2.77c0,0.98,0.71,1.66,1.69,1.66c0.74,0,1.43-0.37,2.06-0.98V165.14z"/>
		<path d="M124.29,159.15v1.5c1.06-1.19,2.45-1.74,3.56-1.74c0.74,0,2.38,0.26,3.35,1.9c0.37,0.58,0.66,1.27,0.66,3.43V171h-2.38
			v-6.76c0-1.27,0-1.93-0.63-2.64c-0.45-0.5-0.98-0.74-1.77-0.74c-1.08,0-2.09,0.63-2.8,1.66V171h-2.4v-11.85H124.29z"/>
		<path d="M145.4,171h-5.02c-4.65,0-5.75-3.83-5.75-6.12c0-3.85,2.85-5.97,5.83-5.97c1.19,0,2.09,0.29,2.56,0.47V153h2.38V171z
			 M143.03,161.47c-0.45-0.24-1.08-0.55-2.19-0.55c-1.98,0-3.83,1.27-3.83,4.25c0,2.01,0.84,3.04,1.74,3.48
			c0.63,0.32,1.24,0.37,2.48,0.37h1.8V161.47z"/>
		<path d="M171.59,157.01c-1.9-1.08-4.04-1.79-6.23-1.79c-4.36,0-7.13,3.22-7.13,6.84c0,3.35,2.38,6.78,7.15,6.78
			c2.27,0,4.49-0.76,6.39-2.01v2.82c-2.09,1.14-4.25,1.58-6.55,1.58c-6.68,0-9.69-5.02-9.69-9.21c0-4.96,4.04-9.27,9.74-9.27
			c2.77,0,5.15,0.98,6.31,1.48V157.01z"/>
		<path d="M182.15,171v-1.5c-1.08,1.19-2.48,1.74-3.59,1.74c-0.74,0-2.38-0.26-3.35-1.9c-0.37-0.58-0.66-1.27-0.66-3.43v-6.76h2.38
			v6.76c0,1.35,0,3.38,2.4,3.38c1.11,0,2.11-0.66,2.82-1.66v-8.47h2.38V171H182.15z"/>
		<path d="M190.23,171h-2.35v-18h2.35V171z"/>
		<path d="M196.36,159.15h3.75v2.11h-3.75v5.17c0.03,1.48,0.05,1.74,0.42,2.16c0.45,0.48,1.03,0.5,1.27,0.5
			c0.48,0,1.37-0.05,2.67-0.84v2.19c-1.11,0.61-2.35,0.79-3.04,0.79c-0.82,0-2.27-0.34-3.09-1.5c-0.58-0.87-0.58-2.14-0.58-3.22
			v-5.25h-2.06v-0.24l4.41-4.33V159.15z"/>
		<path d="M210.29,171v-1.5c-1.08,1.19-2.48,1.74-3.59,1.74c-0.74,0-2.38-0.26-3.35-1.9c-0.37-0.58-0.66-1.27-0.66-3.43v-6.76h2.38
			v6.76c0,1.35,0,3.38,2.4,3.38c1.11,0,2.11-0.66,2.82-1.66v-8.47h2.38V171H210.29z"/>
		<path d="M218.21,159.15v2.72c0.77-1.19,1.87-2.96,3.54-2.96c0.34,0,1.4,0.03,2.77,1.35l-1.24,2.06c-0.29-0.29-1.35-1.16-2.27-1.16
			c-0.87,0-2.8,0.95-2.8,3.64v6.2h-2.35v-11.85H218.21z"/>
		<path d="M235.4,169.84c-0.82,0.53-2.16,1.4-4.65,1.4c-1.24,0-2.67-0.18-4.09-1.66c-1.56-1.61-1.77-3.43-1.77-4.57
			c0-3.7,2.32-6.1,5.54-6.1c2.77,0,4.65,1.98,5.04,4.59c0.13,0.79,0.13,1.32,0.13,1.77h-8.34c0.08,1.77,1.24,3.72,3.83,3.72
			c1.53,0,3.04-0.53,4.3-1.45V169.84z M233.29,163.87c-0.03-0.48-0.21-2.93-2.88-2.93c-0.74,0-1.64,0.29-2.27,1
			c-0.63,0.69-0.74,1.4-0.82,1.93H233.29z"/>
		<path d="M248.1,155.53c0,0.74-0.63,1.4-1.4,1.4c-0.9,0-1.37-0.82-1.37-1.4c0-0.66,0.58-1.37,1.37-1.37S248.1,154.79,248.1,155.53z
			 M247.89,171h-2.35v-11.85h2.35V171z"/>
		<path d="M253.62,159.15v1.5c1.06-1.19,2.45-1.74,3.56-1.74c0.74,0,2.38,0.26,3.35,1.9c0.37,0.58,0.66,1.27,0.66,3.43V171h-2.38
			v-6.76c0-1.27,0-1.93-0.63-2.64c-0.45-0.5-0.98-0.74-1.77-0.74c-1.08,0-2.09,0.63-2.8,1.66V171h-2.4v-11.85H253.62z"/>
		<path d="M282.34,155.29h-7.63v5.49h7.36v2.3h-7.36v5.6h7.87V171h-10.45v-18h10.22V155.29z"/>
		<path d="M293.08,171v-1.5c-1.08,1.19-2.48,1.74-3.59,1.74c-0.74,0-2.38-0.26-3.35-1.9c-0.37-0.58-0.66-1.27-0.66-3.43v-6.76h2.38
			v6.76c0,1.35,0,3.38,2.4,3.38c1.11,0,2.11-0.66,2.82-1.66v-8.47h2.38V171H293.08z"/>
		<path d="M301,159.15v2.72c0.77-1.19,1.87-2.96,3.54-2.96c0.34,0,1.4,0.03,2.77,1.35l-1.24,2.06c-0.29-0.29-1.35-1.16-2.27-1.16
			c-0.87,0-2.8,0.95-2.8,3.64v6.2h-2.35v-11.85H301z"/>
		<path d="M320.25,165.11c0,4.22-3.43,6.12-6.36,6.12c-3.8,0-6.31-2.8-6.31-6.18c0-3.33,2.43-6.15,6.39-6.15
			C317.5,158.91,320.25,161.37,320.25,165.11z M309.98,165.09c0,2.98,2.22,4.04,3.96,4.04c2.32,0,3.91-1.66,3.91-4.07
			c0-2.98-2.32-4.04-4.01-4.04C311.72,161.02,309.98,162.47,309.98,165.09z"/>
		<path d="M326.82,159.15c0.13,0,2.61,0,4.22,1c2.11,1.35,2.46,3.75,2.46,4.94c0,3.46-2.35,6.15-5.89,6.15
			c-1.21,0-1.95-0.32-2.51-0.53v6.36h-2.4v-17.92H326.82z M325.11,161.34v7.29c1.08,0.55,2.06,0.55,2.27,0.55
			c2.09,0,3.72-1.56,3.72-4.09c0-3.75-3.17-3.75-4.33-3.75H325.11z"/>
		<path d="M345.96,169.84c-0.82,0.53-2.16,1.4-4.65,1.4c-1.24,0-2.67-0.18-4.09-1.66c-1.56-1.61-1.77-3.43-1.77-4.57
			c0-3.7,2.32-6.1,5.54-6.1c2.77,0,4.65,1.98,5.04,4.59c0.13,0.79,0.13,1.32,0.13,1.77h-8.34c0.08,1.77,1.24,3.72,3.83,3.72
			c1.53,0,3.04-0.53,4.3-1.45V169.84z M343.85,163.87c-0.03-0.48-0.21-2.93-2.88-2.93c-0.74,0-1.64,0.29-2.27,1
			c-0.63,0.69-0.74,1.4-0.82,1.93H343.85z"/>
	</g>
</g>
<g id="Logo">
	<g>
		<path class="st0" d="M90,70L54.6,57.12c-1.22-0.44-2.15-1.45-2.49-2.71l-0.6-2.19c-0.62-2.27,0.85-4.58,3.16-4.99L90,41V70z
			 M40.96,56.63L38.6,54c-1.26-1.4-3.34-1.73-4.97-0.79L8.1,67.94l4.46,25.28l9.96,0.87L41.46,61.3
			C42.32,59.8,42.12,57.91,40.96,56.63z M35.91,27.5c-0.51-1.48-1.84-2.52-3.4-2.66L0,22l7.05,39.97l32.54-18.79
			c0.83-0.48,1.2-1.48,0.88-2.38c-0.2-0.55-0.63-0.99-1.18-1.19c-2.5-0.9-4.29-3.3-4.29-6.12c0-1.02,0.24-1.99,0.66-2.85
			C36.14,29.67,36.26,28.54,35.91,27.5 M90,0L41.73,22.51c-1.03,0.48-1.5,1.67-1.08,2.73l0.21,0.52c0.29,0.73,0.96,1.2,1.73,1.34
			c2.03,0.35,3.87,1.65,4.81,3.66c1.1,2.36,0.66,5.04-0.91,6.92c-0.38,0.45-0.49,1.07-0.27,1.61c0.32,0.8,1.22,1.21,2.03,0.91L90,25
			V0z M56.12,65.28c-3.85-2.7-9.19-1.51-11.53,2.57L29.18,94.68L90,100V89L56.12,65.28z"/>
		<path d="M197.97,72.86c-5.46,0-9.24,4.04-9.24,10.03c0,5.45,3.43,10.51,9.59,10.51c3.34,0,5.5-0.75,7.87-2.33v-3.79
			c-2.29,1.5-4.53,2.38-6.91,2.38c-3.78,0-6.02-2.02-6.64-5.93h13.9C206.55,76.42,203.2,72.86,197.97,72.86z M192.74,81.12
			c0.53-3.12,2.33-4.88,5.32-4.88c2.77,0,4.49,1.89,4.62,4.88H192.74z M220.86,72.86c1.46,0,2.84,0.63,4.32,1.93l-2.07,3.38
			c-1.12-0.95-2.43-1.58-3.26-1.58c-2.68,0-4.79,2.69-4.79,6.07V93h-3.92V73.25h3.92v4.53h0.09
			C217.12,74.31,219.01,72.86,220.86,72.86z M239.61,87.59c0,3.48-2.77,5.8-6.51,5.8c-2.42,0-4.31-0.48-6.86-1.8v-4.23
			c2.55,1.76,4.88,2.6,6.46,2.6c1.58-0.09,2.9-0.84,2.9-2.25c0-2.73-9.24-4.18-9.24-9.5c0-3.34,2.55-5.36,6.51-5.36
			c1.85,0,3.74,0.53,5.81,1.62v3.87c-2.2-1.45-4.27-2.07-5.72-2.07c-1.58,0-2.6,0.75-2.6,1.8c0,0.88,1.32,1.94,4.8,3.96
			C238.42,84.2,239.61,85.57,239.61,87.59z M244.01,73.25h3.91V93h-3.91V73.25z M248.32,67.27c0,1.27-1.05,2.33-2.33,2.33
			c-1.28,0-2.33-1.05-2.33-2.33c0-1.28,1.06-2.33,2.33-2.33C247.27,64.94,248.32,66,248.32,67.27z M162.21,73.25h3.91V93h-3.91
			V73.25z M131.51,63h4.31v18.21c0,7.35-4.4,12.18-13.33,12.18c-6.33,0-12.49-3.56-12.49-11.74V63h4.31v17.73
			c0,3.39,0.44,4.8,1.8,6.16c1.72,1.71,3.87,2.55,6.47,2.55c3.3,0,5.67-1.06,7.04-2.42c1.54-1.54,1.89-3.74,1.89-6.56V63z
			 M183.67,73.25h4.18l-8.71,20.15h-1.32l-8.93-20.15h4.26l5.32,12.14L183.67,73.25z M157.11,80.82V93h-3.92V80.77
			c0-2.9-1.5-4.79-3.87-4.79c-1.72,0-3.08,0.79-4.93,2.86V93h-3.91V73.25h3.91v2.6h0.09c1.5-1.89,3.69-2.99,5.89-2.99
			C154.12,72.86,157.11,75.41,157.11,80.82z M274.18,88.78l-7.65-15.53h4.45l5.32,11.13l5.1-11.13h4.4L271.86,103h-4.35
			L274.18,88.78z M166.52,67.27c0,1.27-1.06,2.33-2.33,2.33c-1.27,0-2.33-1.05-2.33-2.33c0-1.28,1.06-2.33,2.33-2.33
			C165.47,64.94,166.52,66,166.52,67.27z M261.08,93.39c-4.27,0-6.43-2.64-6.43-6.2V76.77h-3.43v-0.44l7.34-7.17v4.09h6.25v3.52
			h-6.25v10.12c0,2.33,1.67,2.99,2.81,2.99c1.41,0,2.86-0.49,4.45-1.45v3.65C264.46,92.82,262.35,93.39,261.08,93.39z M440.68,63
			h3.92v30h-3.92V63z M434.74,89.53V79.37c0-4.49-3.17-6.51-7.17-6.51c-2.86,0-5.02,0.88-6.55,2.68v4.26
			c1.89-2.24,4.09-3.25,6.24-3.25c2.38,0,3.56,1.01,3.56,3.47v1.06l-3.48,1.23c-3.17,1.14-6.73,2.33-6.73,6.24
			c0,2.55,1.93,4.84,4.84,4.84c1.8,0,3.61-0.66,5.32-2.02c0.35,1.41,1.28,2.02,2.99,2.02c1.23,0,1.98-0.35,3.78-1.54v-2.38
			c-0.88,0.66-1.67,1.06-2.07,1.06C435.01,90.54,434.74,90.27,434.74,89.53z M430.83,89c-1.05,1.02-2.2,1.63-3.43,1.63
			c-1.63,0-2.82-1.14-2.82-2.77c0-2.33,2.9-3.47,6.25-4.62V89z M496,80.82V93h-3.91V80.77c0-2.9-1.49-4.79-3.87-4.79
			c-1.72,0-3.08,0.79-4.93,2.86V93h-3.92V73.25h3.92v2.6h0.09c1.49-1.89,3.69-2.99,5.89-2.99C493.01,72.86,496,75.41,496,80.82z
			 M466.81,72.86c-5.46,0-9.24,4.04-9.24,10.03c0,5.45,3.43,10.51,9.59,10.51c3.34,0,5.5-0.75,7.87-2.33v-3.79
			c-2.29,1.5-4.53,2.38-6.91,2.38c-3.79,0-6.03-2.02-6.64-5.93h13.9C475.39,76.42,472.04,72.86,466.81,72.86z M461.57,81.12
			c0.53-3.12,2.33-4.88,5.32-4.88c2.77,0,4.49,1.89,4.62,4.88H461.57z M406.24,78.22h10.07v12.71c-4,1.76-7.26,2.46-11.43,2.46
			c-9.2,0-15.97-6.42-15.97-15.22c0-8.84,6.95-15.57,16.1-15.57c3.52,0,5.98,0.57,10.69,2.55v4.36c-3.52-1.94-7.17-2.95-10.78-2.95
			c-6.51,0-11.57,4.97-11.57,11.48c0,6.69,5.01,11.4,12.14,11.4c2.33,0,4.44-0.53,6.51-1.19v-6.15h-5.77V78.22z M449.87,63h3.92v30
			h-3.92V63z M331.86,63v3.83c-0.66-0.26-1.06-0.35-1.76-0.35c-3.17,0-4.18,1.85-4.18,4.88v1.89h3.56v3.52h-3.56V93H322V76.77h-2.77
			v-3.52H322V71.8c0-3.87,0.92-5.72,2.51-7.3C326.18,62.83,328.43,62.03,331.86,63z M384.51,90.76c0,1.45-1.19,2.64-2.64,2.64
			c-1.45,0-2.64-1.19-2.64-2.64c0-1.45,1.19-2.64,2.64-2.64C383.32,88.12,384.51,89.31,384.51,90.76z M306.56,72.85
			c-5.89,0-10.43,4.4-10.43,10.07c0,6.07,4.36,10.47,10.43,10.47c6.34,0,10.69-4.22,10.69-10.47
			C317.26,77.08,312.77,72.85,306.56,72.85z M306.52,89.88c-3.78,0-6.38-2.77-6.38-6.95c0-3.78,2.68-6.56,6.38-6.56
			c3.91,0,6.73,2.77,6.73,6.6C313.25,87.24,310.65,89.88,306.52,89.88z M372.37,89.88c1.41,0,2.86-0.48,4.45-1.45v3.65
			c-1.37,0.75-3.47,1.32-4.75,1.32c-4.27,0-6.43-2.64-6.43-6.2V76.77h-3.43v-0.44l7.35-7.17v4.09h6.25v3.52h-6.25v10.12
			C369.56,89.22,371.23,89.88,372.37,89.88z M360.8,85.26c0,4.71-3.56,8.13-8.4,8.13c-3.26,0-5.89-0.88-8.4-2.77v-5.45
			c2.2,2.82,4.97,4.36,7.92,4.36c3.34,0,4.88-2.11,4.88-3.78c0-6.2-12.98-6.91-12.98-15.14c0-4.88,3.61-8,9.11-8
			c2.29,0,4.58,0.7,6.69,2.11v4.88c-2.55-2.42-5.02-3.12-7.04-3.12c-2.77,0-4.75,1.45-4.75,3.56
			C347.83,75.8,360.8,75.71,360.8,85.26z"/>
	</g>
</g>
</svg>
